<?xml version="1.0" encoding="UTF-8" standalone="no"?>
<!-- Created with Inkscape (http://www.inkscape.org/) -->

<svg
   width="5.2680001in"
   height="1.001in"
   viewBox="0 0 133.8072 25.425399"
   version="1.1"
   id="svg1"
   xml:space="preserve"
   xmlns="http://www.w3.org/2000/svg"
   xmlns:svg="http://www.w3.org/2000/svg"><defs
     id="defs1" /><g
     id="layer1"><path
       style="fill:#440055;stroke-width:0.552145"
       d="m 75.304315,21.648977 c -0.03719,-0.107382 0.01519,-1.280898 0.116291,-2.607866 0.101129,-1.326967 0.229085,-3.853498 0.284372,-5.614499 L 75.805493,10.224785 75.425647,9.9064497 C 75.216741,9.7313672 74.911516,9.3076429 74.747362,8.9648461 74.482038,8.4107213 74.441046,8.0062707 74.378052,5.320341 c -0.0619,-2.6406861 -0.04245,-3.0463152 0.154673,-3.2206267 0.453985,-0.4014219 0.520986,-0.052865 0.520986,2.710501 v 2.715369 l 0.389218,-0.047689 0.389212,-0.047689 0.07081,-2.7142456 c 0.05947,-2.2786376 0.104835,-2.7142455 0.283063,-2.7142455 0.179541,0 0.21824,0.4245613 0.250864,2.7519449 l 0.03856,2.751945 h 0.418214 0.418204 l 0.03856,-2.751945 c 0.03264,-2.3273836 0.0713,-2.7519449 0.250874,-2.7519449 0.180418,0 0.218703,0.4641771 0.254917,3.0912284 0.04872,3.5323321 -0.02969,4.0023574 -0.77626,4.6580602 l -0.514459,0.4517982 0.09507,2.835868 c 0.05227,1.559728 0.166069,3.785853 0.252866,4.946946 0.08679,1.161103 0.165644,2.484293 0.175171,2.940442 l 0.01736,0.829353 -0.867011,0.04439 c -0.611473,0.03139 -0.886935,-0.01311 -0.934593,-0.150787 z M 76.787477,9.1933553 c 0.413974,-0.3787891 0.285687,-0.4814684 -0.601512,-0.4814684 -0.888161,0 -1.014263,0.1016551 -0.601512,0.4847284 0.479231,0.4447822 0.714039,0.4441435 1.203024,-0.0033 z M 68.764034,21.543798 c -0.04343,-0.07489 -0.01667,-0.804353 0.05944,-1.621019 0.172546,-1.85064 0.427238,-6.70256 0.427345,-8.141018 8.2e-5,-1.012531 -0.02037,-1.082346 -0.341355,-1.168186 -0.509165,-0.136161 -1.432571,-1.342431 -1.6566,-2.1640529 -0.107631,-0.3947808 -0.195541,-1.1639892 -0.195336,-1.7093582 8.22e-4,-2.192016 1.56767,-3.9589641 3.13823,-3.5389843 0.59966,0.1603463 1.384525,1.118382 1.735084,2.1178948 0.385885,1.1002537 0.361232,2.6832094 -0.05608,3.5987879 -0.290331,0.6370238 -1.14938,1.6035187 -1.425254,1.6035187 -0.436901,0 -0.471193,0.375914 -0.329837,3.615837 0.07758,1.778534 0.218619,4.172572 0.313393,5.320085 0.09477,1.147512 0.14354,2.117046 0.108369,2.154525 -0.120684,0.128562 -1.698427,0.06817 -1.777447,-0.06806 z M 70.402636,9.8320972 c 0.291185,-0.1604344 0.546937,-0.5090243 0.792205,-1.0798346 0.943364,-2.1953862 -0.0041,-4.9489282 -1.685628,-4.8979905 -1.02644,0.031168 -1.815147,1.3705043 -1.815147,3.0825718 0,2.3028784 1.286928,3.6785151 2.70857,2.8952533 z M 82.084427,21.566871 c -0.03442,-0.06223 0.02081,-1.130948 0.122635,-2.374973 0.101867,-1.244025 0.230548,-3.491912 0.285963,-4.995284 l 0.100752,-2.73342 -0.494212,-0.173772 C 80.756508,10.817171 79.696751,9.1015133 79.671337,7.3583545 79.649344,5.8489363 79.939212,4.9974126 80.777909,4.1076278 81.79877,3.0245993 82.951595,2.7133894 84.08091,3.2159928 c 1.515181,0.6743377 2.426778,2.6856544 2.154248,4.7530851 -0.203437,1.5432959 -0.906913,2.5646491 -2.179328,3.1641161 l -0.692796,0.326398 0.100466,2.735227 c 0.05523,1.504363 0.184422,3.753054 0.287038,4.997079 0.102615,1.244025 0.158415,2.312769 0.123997,2.374973 -0.03442,0.06223 -0.43718,0.113087 -0.895049,0.113087 -0.45787,0 -0.860631,-0.05088 -0.895059,-0.113087 z M 83.926094,10.529608 C 85.523949,9.7567094 86.177573,6.9806007 85.186092,5.1780789 84.75622,4.3965573 84.272157,3.9942654 83.444121,3.7304027 81.766885,3.1959261 80.1454,5.1907996 80.324526,7.5683609 c 0.115634,1.5347603 0.836744,2.6327121 2.018072,3.0726711 0.618919,0.230491 0.920493,0.209279 1.583496,-0.111424 z M 2.8725662,15.917999 c 0,-0.06542 0.1221693,-0.118913 0.2714871,-0.118913 0.6561593,0 0.6495832,0.03789 0.6282888,-3.629593 C 3.7612472,10.25798 3.7164435,8.6559601 3.6727847,8.6094498 3.5237174,8.4506344 2.8950312,8.7112151 2.4373378,9.1215359 2.1859625,9.3468842 1.859628,9.8218986 1.7121475,10.17713 c -0.1474796,0.355209 -0.3280407,0.645846 -0.4012484,0.645846 -0.128128,0 -0.028334,-2.2498929 0.1070142,-2.4126732 C 1.4523913,8.3687817 2.876513,8.311291 4.582623,8.2824355 L 7.6846417,8.2299005 V 9.450995 c 0,0.671606 -0.058009,1.221095 -0.1289062,1.221095 -0.070899,0 -0.2684861,-0.307191 -0.4390835,-0.6826535 C 6.7540598,9.1914169 6.0462949,8.5610122 5.5129243,8.5610122 H 5.137073 l 0.00217,3.4305128 c 0.00118,1.886775 0.053502,3.516671 0.1162392,3.621993 0.062743,0.10529 0.2617345,0.173177 0.4422098,0.150798 0.1804754,-0.02236 0.3509229,0.0272 0.3787726,0.110135 0.031805,0.09472 -0.5546472,0.152956 -1.5766309,0.156613 -0.8949958,0.0033 -1.6272642,-0.04769 -1.6272642,-0.113098 z m 5.7603476,0.0239 c 0.06227,-0.06245 0.2388871,-0.137658 0.3924862,-0.167152 0.279073,-0.05353 0.612045,-0.920898 2.277307,-5.9319216 0.27561,-0.8293535 0.555579,-1.5660829 0.622151,-1.6371974 0.152169,-0.162527 0.299683,0.1387377 0.764724,1.5617986 0.203268,0.6220234 0.744243,2.2166434 1.202169,3.5436104 0.825353,2.391692 0.83675,2.413477 1.311011,2.505914 0.263131,0.05132 -0.254008,0.09196 -1.149195,0.09053 -0.895188,-0.0011 -1.446303,-0.03161 -1.2247,-0.06696 0.338864,-0.05408 0.387919,-0.116359 0.308579,-0.392083 -0.05189,-0.180336 -0.17351,-0.633213 -0.270275,-1.006429 l -0.175939,-0.678567 -1.214729,-0.04328 -1.214728,-0.04339 -0.294795,0.930062 c -0.162137,0.511513 -0.260564,0.989049 -0.218726,1.061177 0.04184,0.07214 0.263377,0.131128 0.49231,0.131128 0.228934,0 0.416078,0.05088 0.415876,0.113098 -2.01e-4,0.06223 -0.481051,0.119871 -1.068554,0.128164 -0.587502,0.0077 -1.0172408,-0.03601 -0.9549722,-0.09846 z m 3.4321212,-3.782285 c -0.490678,-1.417852 -0.539484,-1.518109 -0.690637,-1.418568 -0.121299,0.07985 -0.859123,2.210266 -0.859123,2.480626 0,0.103418 0.367616,0.164763 0.987162,0.164763 h 0.987161 z m 5.385291,2.810129 c 0,-0.622012 0.05962,-1.130937 0.132493,-1.130937 0.07287,0 0.399315,0.405276 0.725431,0.9006 0.607478,0.922682 0.815646,1.070528 1.538,1.092423 1.005451,0.03051 1.708495,-0.679713 1.708495,-1.725791 0,-0.952253 -0.488897,-1.325712 -2.025687,-1.547403 -1.281206,-0.18483 -2.078732,-1.020869 -2.078732,-2.179131 0,-0.7100329 0.485522,-1.5871521 1.088288,-1.9660623 0.45982,-0.2890507 0.653115,-0.3215186 1.386023,-0.2328045 0.468426,0.05672 1.08391,0.104849 1.367743,0.1070518 0.459752,0.0033 0.525383,0.053526 0.601509,0.4591218 0.126991,0.6764854 0.103488,1.4433592 -0.04728,1.5426352 -0.073,0.04813 -0.320992,-0.202374 -0.551092,-0.5565589 -0.841551,-1.2953698 -1.451068,-1.6245648 -2.2552,-1.2180106 -0.667007,0.3372239 -0.93642,0.8227563 -0.820822,1.479263 0.118181,0.6711665 0.482237,0.9225725 1.616224,1.1160805 1.261512,0.215282 2.037678,0.648776 2.329664,1.301141 0.539277,1.204861 0.07207,2.721438 -1.029577,3.342128 -0.708068,0.398944 -1.843207,0.464717 -2.426197,0.14061 -0.307161,-0.170776 -0.424681,-0.171503 -0.707657,-0.0044 -0.186631,0.110191 -0.387096,0.202748 -0.445478,0.205689 -0.05838,0.0033 -0.106149,-0.503573 -0.106149,-1.125585 z m 8.350368,0.958895 c 0,-0.0608 0.206991,-0.1317 0.459979,-0.157692 l 0.459977,-0.04725 v -3.543588 c 0,-3.4517358 -0.0075,-3.5447563 -0.288694,-3.587632 -0.490048,-0.074782 -1.24171,0.5885861 -1.621983,1.431376 -0.194606,0.431302 -0.412184,0.766819 -0.483508,0.745596 -0.131436,-0.0391 -0.121803,-2.216753 0.01043,-2.3578696 0.03951,-0.042182 1.467747,-0.1002233 3.173858,-0.1291339 l 3.102018,-0.052535 v 0.5214916 c 0,0.2868149 0.0405,0.836314 0.09,1.2210944 0.115871,0.9006885 -0.208138,0.9663405 -0.561213,0.1137145 -0.43232,-1.0439851 -1.284367,-1.7076617 -1.879803,-1.4642181 -0.1568,0.064099 -0.20199,0.1995545 -0.143782,0.4309382 0.04669,0.1856004 0.08576,1.7819709 0.08683,3.5474769 l 0.0019,3.210031 0.374368,-0.04339 c 0.2059,-0.0239 0.39672,0.02445 0.424042,0.107382 0.03116,0.09461 -0.556625,0.153364 -1.577385,0.157692 -0.894883,0.0044 -1.627062,-0.04284 -1.627062,-0.103527 z m 22.654039,-0.116083 c -0.876346,-0.378613 -1.58262,-1.053589 -1.993872,-1.905509 -0.287782,-0.596153 -0.350282,-0.94319 -0.349862,-1.942637 4.4e-4,-1.047069 0.05312,-1.311494 0.37759,-1.895388 1.324667,-2.3837733 3.554226,-2.8222117 5.236591,-1.0297673 2.008423,2.1398233 1.144473,5.9915483 -1.536757,6.8512773 -0.819827,0.262871 -0.959246,0.256605 -1.73369,-0.07798 z m 2.251009,-0.588597 c 0.37011,-0.394329 0.405665,-0.539554 0.502434,-2.052166 0.169988,-2.65713 -0.118852,-4.3839336 -0.798074,-4.7712362 -0.7508,-0.4281077 -2.133175,-0.059143 -2.48474,0.663181 -0.311293,0.6395789 -0.430352,3.7559522 -0.190477,4.9857032 0.247656,1.269642 0.598949,1.598859 1.706051,1.598859 0.761365,0 0.91484,-0.05154 1.264806,-0.424341 z m 43.79358,0.442073 c -1.078012,-0.673358 -1.637344,-1.682728 -1.723312,-3.109886 -0.110259,-1.830452 0.53587,-3.2223559 1.934519,-4.1673847 0.735273,-0.4967992 1.664943,-0.5744228 2.346279,-0.195909 0.282965,0.1572074 0.593897,0.2016691 0.955334,0.136612 l 0.535831,-0.096479 v 1.0687994 c 0,1.2810633 -0.195172,1.3884123 -0.695913,0.3827539 -0.60007,-1.2051688 -1.664028,-1.6921109 -2.586598,-1.1838245 -0.636167,0.3504952 -0.852424,1.0830505 -0.930385,3.1515939 -0.113207,3.003869 0.228053,3.987269 1.469741,4.23546 1.019618,0.203783 1.610903,-0.411467 1.610903,-1.67623 0,-0.583255 -0.04418,-0.680395 -0.345786,-0.761047 -0.190182,-0.05088 -0.413096,-0.04813 -0.495356,0.0066 -0.08225,0.05419 -0.14957,0.03458 -0.14957,-0.04361 0,-0.230899 0.554746,-0.32382 1.946056,-0.326012 0.779704,-0.0011 1.309164,0.05892 1.309164,0.148738 0,0.08293 -0.12938,0.150787 -0.28751,0.150787 -0.15812,0 -0.30984,0.0848 -0.33714,0.188486 -0.356361,1.353257 -0.441136,1.51075 -1.055725,1.961271 -0.545246,0.399671 -0.790824,0.475058 -1.707353,0.524025 -0.983576,0.05253 -1.12922,0.0206 -1.793179,-0.394186 z m 7.162348,0.289623 c 0,-0.07511 0.17514,-0.157989 0.38921,-0.184246 l 0.38922,-0.04769 V 12.104711 8.4857236 l -0.3757,0.046587 c -0.20663,0.025662 -0.41737,-0.025221 -0.46833,-0.1130981 -0.17442,-0.300692 4.5332,-0.2798874 5.08589,0.022468 0.67475,0.3691412 0.92404,0.758305 0.92404,1.4424888 0,0.5581557 -0.0789,0.7514217 -0.4821,1.1809947 -0.26515,0.282509 -0.67912,0.555623 -0.91995,0.606946 -0.58333,0.124299 -0.5519,0.289072 0.12535,0.657178 0.71122,0.386576 0.95364,0.887527 1.04002,2.149196 0.0825,1.205069 0.16353,1.37285 0.60595,1.254542 0.2456,-0.06564 0.33839,-0.02764 0.33839,0.138584 0,0.345924 -1.0954,0.297839 -1.66653,-0.07313 -0.5327,-0.346035 -0.73617,-0.810289 -0.7475,-1.705581 -0.0175,-1.387817 -0.50851,-2.056494 -1.51347,-2.061351 l -0.45998,-0.0022 v 1.902481 1.90247 l 0.3572,-0.0728 c 0.40955,-0.08337 0.62362,0.127724 0.24636,0.24297 -0.43944,0.134233 -2.86807,0.09295 -2.86807,-0.04879 z m 4.0942,-4.595063 c 0.38869,-0.374769 0.48849,-1.027785 0.29108,-1.9045515 -0.19999,-0.8881658 -0.46008,-1.079317 -1.38255,-1.0160882 l -0.66745,0.045816 -0.0403,1.6401267 -0.0403,1.640117 0.7812,-0.06905 c 0.4727,-0.04174 0.89068,-0.174575 1.05843,-0.336332 z m 4.48335,4.593753 c 0.0696,-0.07137 0.2803,-0.152417 0.4681,-0.180182 0.27973,-0.0413 0.3993,-0.227617 0.66151,-1.030604 0.17604,-0.53908 0.55362,-1.658707 0.83905,-2.48806 0.28544,-0.829354 0.70871,-2.097719 0.9406,-2.818578 0.30068,-0.9346761 0.47714,-1.2879467 0.61519,-1.2315023 0.10646,0.043614 0.35147,0.5654578 0.54445,1.1598591 0.46969,1.4466852 1.76644,5.2269442 1.92251,5.6044662 0.0685,0.165875 0.1603,0.420332 0.20382,0.565469 0.0525,0.17473 0.2241,0.263885 0.50819,0.263885 0.23597,0 0.42905,0.06179 0.42905,0.137328 0,0.07555 -0.70059,0.136887 -1.55686,0.136358 -0.85625,-5.39e-4 -1.55684,-0.06234 -1.55684,-0.137328 0,-0.075 0.16604,-0.136358 0.36896,-0.136358 0.27379,0 0.34745,-0.0598 0.2855,-0.231781 -0.0459,-0.12747 -0.18463,-0.602474 -0.30825,-1.055549 l -0.22477,-0.823759 h -1.17401 -1.17401 l -0.30203,0.882538 c -0.39859,1.164727 -0.38855,1.228551 0.19333,1.228551 0.27245,0 0.49537,0.05573 0.49537,0.123858 0,0.06817 -0.51874,0.13224 -1.15275,0.142482 -0.64688,0.0099 -1.09717,-0.03833 -1.02611,-0.111093 z m 3.65033,-3.585759 c -0.20131,-0.559808 -0.43158,-1.209586 -0.51173,-1.443932 -0.18243,-0.533431 -0.26542,-0.432965 -0.72841,0.881668 -0.55521,1.576458 -0.55378,1.580114 0.61664,1.580114 h 0.9895 z m 6.41863,3.524931 c -0.82206,-0.324911 -1.41866,-0.887858 -1.87863,-1.772686 -0.36561,-0.703282 -0.41983,-0.958543 -0.41234,-1.940731 0.007,-0.912231 0.0798,-1.276746 0.37649,-1.884893 0.93892,-1.9244088 2.64216,-2.789314 4.16124,-2.1130709 0.36669,0.1632318 0.5779,0.1818337 0.77681,0.068394 0.44615,-0.254402 0.55038,-0.034362 0.55038,1.161379 0,1.3232899 -0.17636,1.4100869 -0.6671,0.3282479 -0.5956,-1.3129805 -1.61326,-1.8100111 -2.66284,-1.3005132 -0.6781,0.329184 -0.83484,0.8961616 -0.89058,3.2217062 -0.0778,3.247897 0.27605,4.137726 1.6456,4.137726 0.92698,0 1.54969,-0.456854 2.00881,-1.473746 0.53735,-1.190179 0.72544,-1.004458 0.60477,0.597199 l -0.0744,0.987376 -0.58363,0.0077 c -0.321,0.0044 -0.99762,0.04769 -1.5036,0.0967 -0.62505,0.06058 -1.09018,0.02192 -1.45098,-0.120642 z m 5.69693,0.05639 c -0.15781,-0.108704 -0.0755,-0.146766 0.32102,-0.148485 l 0.5333,-0.0022 -0.038,-3.58131 -0.038,-3.5812877 -0.45997,-0.047248 c -0.25769,-0.026433 -0.45997,-0.1326031 -0.45997,-0.2413069 0,-0.1531764 0.58792,-0.184554 2.79085,-0.1489472 2.53378,0.04097 2.80013,0.070156 2.89146,0.3167056 0.15326,0.4138012 0.13914,1.8549022 -0.0182,1.8549022 -0.0762,0 -0.26054,-0.254457 -0.40953,-0.5654687 -0.44058,-0.9197416 -0.78208,-1.154176 -1.81581,-1.2466018 -0.60678,-0.054297 -0.94419,-0.025882 -0.98331,0.082822 -0.0327,0.090972 -0.0413,0.8825379 -0.0191,1.7590735 l 0.0404,1.593716 0.4914,-0.170886 c 0.33362,-0.116017 0.58702,-0.352819 0.78916,-0.737479 0.16377,-0.311628 0.3407,-0.520842 0.39317,-0.464937 0.14613,0.155699 0.11342,3.067219 -0.0345,3.067219 -0.0714,0 -0.24657,-0.254457 -0.3892,-0.565468 -0.25832,-0.563255 -0.91174,-1.043226 -1.17986,-0.866668 -0.0803,0.05297 -0.14097,0.835224 -0.14097,1.818018 v 1.725207 h 0.7122 c 1.22703,0 2.01369,-0.541515 2.46741,-1.698466 0.32981,-0.840995 0.5579,-0.725397 0.4504,0.228245 -0.0491,0.43541 -0.0898,1.012189 -0.0904,1.281735 l -8.2e-4,0.49007 -2.79525,-0.0022 c -1.56017,-0.0011 -2.88905,-0.06696 -3.00754,-0.148485 z M 32.52857,15.790297 c 0.05311,-0.09152 0.267878,-0.118605 0.503713,-0.06344 l 0.411122,0.09626 v -3.63098 -3.6309816 h -0.495362 c -0.272449,0 -0.49536,-0.067844 -0.49536,-0.1507975 0,-0.095487 1.032002,-0.1507865 2.812942,-0.1507865 h 2.812941 l 0.08845,0.4712257 c 0.130371,0.6944815 0.107526,1.6398519 -0.03963,1.6398519 -0.07044,0 -0.290748,-0.295736 -0.489561,-0.6571678 C 37.134694,8.7987728 36.737763,8.5611554 35.712887,8.5611554 h -0.854171 v 1.7235766 1.723577 l 0.438313,-0.133935 c 0.566231,-0.173023 0.765844,-0.357412 0.978203,-0.903641 0.09525,-0.245007 0.229483,-0.408393 0.298291,-0.363083 0.15136,0.09967 0.169708,3.080589 0.01896,3.080006 -0.05838,-2.21e-4 -0.233527,-0.253907 -0.389212,-0.563762 -0.284803,-0.566801 -0.94162,-1.040472 -1.203592,-0.867967 -0.0803,0.05297 -0.140959,0.835224 -0.140959,1.818018 v 1.725207 l 0.601511,-5.73e-4 c 1.319793,-0.0011 2.119573,-0.528001 2.577345,-1.695558 0.316867,-0.808197 0.561285,-0.735243 0.44944,0.134134 -0.04951,0.384791 -0.09,0.927627 -0.09,1.206336 v 0.506722 h -2.980515 c -2.060868,0 -2.951947,-0.04923 -2.887925,-0.159619 z m 22.21535,0.0088 c 0.04811,-0.08293 0.27478,-0.150798 0.503713,-0.150798 h 0.416241 V 12.104711 8.5611114 h -0.507155 c -0.335981,0 -0.487741,-0.062117 -0.449638,-0.1838382 0.04219,-0.1348499 0.799258,-0.1921314 2.840612,-0.2149185 1.530703,-0.017071 2.808753,0.014758 2.840106,0.070707 0.140856,0.2515495 0.14826,2.1883713 0.0086,2.2395183 -0.08268,0.03018 -0.29057,-0.268687 -0.46195,-0.6643492 C 59.505077,8.8169672 59.102214,8.5428619 58.028426,8.5114072 l -0.878448,-0.025772 -0.04001,1.6964168 c -0.04342,1.840872 -0.03328,1.861952 0.745309,1.546568 0.218744,-0.08855 0.454617,-0.365881 0.57724,-0.678567 0.354965,-0.905127 0.486616,-0.61981 0.486616,1.054581 0,1.663332 -0.131767,1.959432 -0.478511,1.075264 -0.217052,-0.553475 -0.712539,-0.999854 -1.109829,-0.999854 -0.226491,0 -0.251572,0.172879 -0.251572,1.734094 v 1.734095 h 0.495361 c 0.272447,0 0.495361,0.06784 0.495361,0.150797 0,0.09218 -0.663265,0.150798 -1.706734,0.150798 -1.101781,0 -1.675729,-0.05353 -1.619261,-0.150798 z"
       id="path1" /></g></svg>
