<?xml version="1.0" encoding="UTF-8" standalone="no"?>
<!-- Created with Inkscape (http://www.inkscape.org/) -->

<svg
   width="9in"
   height="2.52in"
   viewBox="0 0 228.6 64.008006"
   version="1.1"
   id="svg1"
   xml:space="preserve"
   xmlns="http://www.w3.org/2000/svg"
   xmlns:svg="http://www.w3.org/2000/svg"><defs
     id="defs1"><rect
       x="298.55621"
       y="205.48402"
       width="672.05365"
       height="89.445984"
       id="rect43" /><rect
       x="362.61887"
       y="171.63959"
       width="472.61325"
       height="105.15947"
       id="rect42" /><rect
       x="124.49914"
       y="160.76103"
       width="983.90582"
       height="123.29041"
       id="rect41" /><rect
       x="283.04617"
       y="49.705669"
       width="491.53384"
       height="106.3149"
       id="rect3" /><rect
       x="78.700645"
       y="256.81262"
       width="654.45795"
       height="198.82268"
       id="rect2" /><rect
       x="75.939217"
       y="472.20386"
       width="367.26965"
       height="237.48264"
       id="rect1" /></defs><g
     id="layer1"><text
       xml:space="preserve"
       transform="scale(0.26458333)"
       id="text41"
       style="font-style:normal;font-variant:normal;font-weight:normal;font-stretch:normal;font-size:64px;font-family:'Calisto MT';-inkscape-font-specification:'Calisto MT';white-space:pre;shape-inside:url(#rect41);opacity:0.554745;fill:#002255"><tspan
         x="124.5"
         y="218.19316"
         id="tspan1"> 
</tspan><tspan
         x="124.5"
         y="298.19316"
         id="tspan2">
</tspan><tspan
         x="124.5"
         y="341.48223"
         id="tspan3">
</tspan><tspan
         x="124.5"
         y="421.48223"
         id="tspan4">\</tspan></text><g
       id="g45"
       transform="matrix(1.0484068,0,0,1.0309669,-10.414841,-0.27028721)"><g
         id="g17"
         transform="matrix(1.0021475,0,0,1.1313827,-6.6027497,-39.884256)"
         style="fill:#00aad4"><path
           style="opacity:0.554745;fill:#00aad4;stroke-width:0.491046"
           d="m 438.78542,243.79398 c -17.04328,-0.22531 -33.95909,2.07505 -50.79644,4.43476 -0.70066,4.48879 0.8249,9.40553 2.24135,13.80588 3.50223,10.273 9.04336,20.22482 18.01047,26.68818 9.81205,7.54254 22.11355,12.51818 34.65133,11.55551 7.46326,0.004 15.1426,0.0157 22.08273,-3.14494 15.79837,-5.71271 27.94654,-19.36365 32.97206,-35.25508 1.23214,-4.33251 2.96006,-8.77387 2.97984,-13.29373 -4.32876,-1.38336 -9.20043,-1.43726 -13.73238,-2.23617 -16.0243,-2.47933 -32.23352,-2.52195 -48.40896,-2.55441 z m 5.78418,2.35932 c 0.5107,1.99475 -0.37467,4.3619 0.54572,6.10835 1.96527,0.22187 4.54778,-0.0834 6.25988,0.63395 -2.08873,0.88764 -4.76276,0.42403 -6.64159,1.55274 -0.10209,1.88214 0.24176,4.03567 -0.3587,5.68348 -1.06917,-2.09427 0.003,-6.01783 -3.23879,-6.42197 -1.15129,-0.37951 -3.17303,-0.48875 -3.80753,-1.01086 1.9267,-0.76722 5.77339,0.65363 6.03034,-2.32633 0.34658,-1.32265 0.46486,-3.19032 1.21067,-4.21936 z m -32.22587,1.73401 c 3.68317,-1.09202 2.15437,3.40777 2.76405,5.65183 0.58839,9.23479 4.44767,18.17497 8.0898,26.24508 -7.35342,-9.04016 -12.75778,-20.08912 -13.11823,-31.89691 0.75479,0 1.50958,0 2.26438,0 z m 77.85674,1.96418 c 1.57252,-0.28835 3.72151,0.48577 2.92134,2.4677 -0.74415,2.67997 -1.22803,6.19015 -3.61571,7.90853 -1.47861,-2.75407 -0.0367,-6.2644 -1.02917,-9.24866 -0.87484,-1.7751 0.64498,-0.93061 1.72354,-1.12757 z m -92.52963,0.53325 c 0.97466,0.91189 0.42307,3.33302 0.73945,4.78195 -0.30921,2.08159 0.98664,5.05145 -0.75,6.64159 -2.29849,0.04 -2.29187,-3.31199 -3.16878,-4.78866 -0.35672,-1.91626 -1.90248,-4.14252 -1.25064,-6.03066 1.40257,-0.48686 2.96012,-0.51366 4.42997,-0.60422 z m 89.13163,14.70358 c 2.72394,2.63936 -0.19698,6.40449 -1.74839,8.83404 -4.55147,6.49797 -10.96407,11.80477 -18.26559,14.92128 5.99423,-6.60054 13.11264,-12.37849 17.48298,-20.32279 0.78917,-1.17484 1.5284,-2.42403 2.531,-3.43253 z m -85.80748,3.99934 c 1.80603,1.38144 2.13543,4.20156 3.80082,5.86091 5.13769,7.22539 11.91192,13.05816 19.00215,18.27421 0.97514,1.06205 -1.67691,-0.18339 -2.00926,-0.31074 -9.31752,-4.12638 -18.64418,-10.70416 -22.2563,-20.62395 -0.20846,-1.10127 -0.008,-3.09882 1.46259,-3.20043 z"
           id="path10"
           transform="scale(0.26458333)" /><path
           style="opacity:0.554745;fill:#00aad4;stroke-width:0.491046"
           d="m 407.91951,166.77642 c -6.01808,0.37292 -12.8435,2.85509 -15.77582,8.4811 -2.97744,7.47592 -0.56267,15.9495 2.61805,22.95116 3.21553,7.02542 10.70313,10.88294 18.13922,11.56757 2.56733,0.12236 2.43729,3.79374 3.83609,5.43939 3.53374,7.67754 7.49837,15.32278 9.80386,23.45208 -5.55675,1.66545 -11.61126,1.57505 -17.33336,2.77077 -5.43574,1.11314 -11.30231,1.45878 -16.26591,3.99455 1.54551,1.14652 4.52816,-0.28162 6.58501,-0.14962 31.50906,-4.30467 63.61522,-4.15416 95.0731,0.47858 1.67916,0.0482 0.19916,-1.51021 -0.81617,-1.32449 -2.67332,-0.95652 -5.97301,-1.40793 -8.29121,-2.73144 12.00643,-13.00344 25.63109,-24.43741 37.57848,-37.4864 3.08029,-3.94554 -2.91076,-10.02942 -6.84108,-6.88424 -8.00916,6.38365 -14.18836,14.73391 -21.0438,22.28153 -5.9645,6.62368 -11.25711,13.89225 -17.62515,20.12972 -2.73874,1.24066 -6.01645,-0.22793 -8.93897,-0.0224 -11.26712,-1.00743 -22.5889,-1.02311 -33.8914,-0.98464 -4.74497,-10.22575 -9.81467,-20.46844 -13.23907,-31.16226 2.63047,-4.80043 7.68932,-9.00062 6.84785,-15.02673 -0.37217,-7.86019 -4.50634,-15.19191 -9.54285,-21.03929 -2.79805,-2.97535 -6.74632,-4.8853 -10.87687,-4.73495 z m 5.43508,3.58023 c 2.33243,1.22533 2.67718,4.54171 3.96428,6.65929 1.61762,4.17599 3.84542,8.30382 4.36721,12.78691 -2.29268,1.41239 -3.25824,-2.28936 -4.09123,-3.72945 -1.8765,-4.91436 -4.64054,-9.76395 -5.08137,-15.04348 0.006,-0.48518 0.37476,-0.73475 0.84111,-0.67327 z m -10.00507,3.92741 c 2.73889,0.51275 3.03806,4.17236 4.44943,6.13962 1.78605,4.2157 4.09768,8.51857 4.56396,13.10134 -1.91777,1.56006 -3.21737,-1.74608 -3.81424,-3.13905 -2.06713,-5.14792 -4.82528,-10.27306 -5.71513,-15.79884 -0.0423,-0.34812 0.26851,-0.32217 0.51598,-0.30307 z m -8.82732,3.47473 c 2.77751,0.76166 2.91056,4.55201 4.25733,6.63967 1.45317,4.22338 3.9242,8.31609 4.27843,12.7816 -2.82197,1.2419 -3.44955,-3.05035 -4.47696,-4.72441 -1.76525,-4.60099 -4.05414,-9.17829 -4.96513,-14.00921 0.0919,-0.41289 0.47434,-0.73164 0.90633,-0.68765 z m 124.89265,21.01237 c 2.23012,0.48096 3.30095,3.9191 1.10198,5.25094 -1.87382,2.62645 -6.82979,1.06087 -5.59045,-2.41208 0.70787,-1.70357 2.64324,-2.94773 4.48847,-2.83886 z"
           id="path11"
           transform="scale(0.26458333)" /><path
           style="opacity:0.554745;fill:#00aad4;stroke-width:0.491046"
           d="m 521.08652,237.32214 c -8.78963,0.50285 -16.67702,4.93549 -24.71824,8.07829 0.0664,1.59179 3.72193,0.76263 5.34685,1.12307 7.61829,-0.13239 15.90974,-0.67747 22.37617,-5.12242 2.46658,-1.85622 -0.9804,-4.46003 -3.00478,-4.07894 z"
           id="path12"
           transform="scale(0.26458333)" /><path
           style="opacity:0.554745;fill:#00aad4;stroke-width:0.491046"
           d="m 456.14276,171.12391 c -2.32103,2.37096 0.11699,6.01401 0.81804,8.60256 2.3656,6.03881 5.98449,13.18271 2.61833,19.55204 -1.07749,1.47636 -2.75259,4.04147 -4.79154,3.34909 -1.3175,-3.52526 1.12374,-7.29532 0.4643,-10.98158 -0.36636,-4.1366 -3.24761,-7.61206 -5.78333,-10.68296 -1.54482,0.39846 0.23008,2.83765 0.006,3.98591 0.42322,3.63954 -3.48205,5.71843 -5.36506,8.41876 -3.19536,2.93898 -4.92084,7.64517 -2.93285,11.75634 2.24416,4.99098 6.71325,8.65928 11.16747,11.59426 1.21523,-0.94743 -0.82191,-2.9159 -1.00416,-4.1643 -0.87772,-2.59493 -3.60606,-6.18706 -1.66495,-8.79664 2.64646,2.16864 3.35946,6.30376 6.21289,8.1694 3.48327,-2.23203 4.26674,-7.24742 7.69466,-9.58979 3.74443,3.44949 -2.70752,7.87745 -3.0911,11.54247 1.07393,1.63981 3.30573,-0.53368 4.56711,-1.00415 4.7824,-2.61166 9.4363,-7.35442 8.59331,-13.26017 -0.82782,-8.72827 -8.73105,-14.12457 -13.60735,-20.65944 -1.80568,-2.19661 -3.31889,-4.80261 -3.40664,-7.67451 -0.10926,-0.15086 -0.32,-0.21227 -0.49488,-0.15729 z"
           id="path13"
           transform="scale(0.26458333)" /><path
           style="opacity:0.554745;fill:#00aad4;stroke-width:0.491046"
           d="m 445.404,162.39633 c -0.91788,1.11752 -1.89165,2.48608 -3.57016,2.64842 -3.47332,0.69074 -0.1384,1.56957 1.56569,1.53027 1.68275,0.19654 0.79394,3.92954 2.37275,3.06903 -0.21427,-1.98507 1.37679,-3.07925 2.93957,-3.73367 0.14221,-1.31172 -2.34789,-0.37639 -2.30466,-2.06873 -0.24984,-0.47342 -0.27912,-1.45189 -1.00319,-1.44532 z"
           id="path14"
           transform="scale(0.26458333)" /><path
           style="opacity:0.554745;fill:#00aad4;stroke-width:0.491046"
           d="m 473.95086,211.4885 c -3.05279,2.23204 -6.16114,4.54895 -9.52361,6.39511 -3.88622,2.2732 -6.68533,7.16366 -5.66909,11.65563 1.39447,1.12001 1.74656,-1.88493 2.1723,-2.78899 1.18211,-5.05086 5.30269,-8.55093 9.81518,-10.67066 1.4114,-1.0679 3.98728,-2.39132 3.63009,-4.44436 -0.1071,-0.1198 -0.27125,-0.16546 -0.42487,-0.14673 z"
           id="path15"
           transform="scale(0.26458333)" /><path
           style="opacity:0.554745;fill:#00aad4;stroke-width:0.491046"
           d="m 443.37268,215.17614 c -1.40546,0.93648 1.37727,2.47509 1.75606,3.38649 2.31673,2.65275 5.09507,5.24602 6.90534,8.18091 1.7094,-0.72309 0.0562,-3.14919 -0.68286,-4.08949 -2.31799,-2.67669 -4.84786,-5.85174 -7.97854,-7.47791 z"
           id="path16"
           transform="scale(0.26458333)" /><path
           style="opacity:0.554745;fill:#00aad4;stroke-width:0.491046"
           d="m 368.09297,237.27802 c -1.89463,-0.22278 -5.20817,1.88699 -3.28196,3.86603 5.48848,3.91336 12.56982,4.67932 19.09135,5.52236 3.21323,0.24413 6.61269,0.3897 9.67035,-0.6234 -1.82114,-1.73391 -5.26013,-2.15184 -7.68875,-3.43359 -5.76094,-2.14214 -11.51117,-5.25438 -17.79099,-5.3314 z"
           id="path17"
           transform="scale(0.26458333)" /></g><text
         xml:space="preserve"
         transform="matrix(0.53070391,0,0,0.62202799,-141.42769,-117.35732)"
         id="text42"
         style="font-style:normal;font-variant:normal;font-weight:normal;font-stretch:normal;font-size:64px;font-family:Garamond;-inkscape-font-specification:Garamond;white-space:pre;shape-inside:url(#rect43);fill:#003380"><tspan
           x="298.55664"
           y="259.1159"
           id="tspan5">Taste of Grace</tspan></text></g></g></svg>
