<?xml version="1.0" encoding="UTF-8" standalone="no"?>
<!-- Created with Inkscape (http://www.inkscape.org/) -->

<svg
   width="4.2680001in"
   height="1.693in"
   viewBox="0 0 108.4072 43.002196"
   version="1.1"
   id="svg1"
   xml:space="preserve"
   xmlns="http://www.w3.org/2000/svg"
   xmlns:svg="http://www.w3.org/2000/svg"><defs
     id="defs1"><rect
       x="24.852835"
       y="237.48264"
       width="633.74725"
       height="127.0256"
       id="rect3" /></defs><g
     id="layer1"><text
       xml:space="preserve"
       transform="scale(0.26458333)"
       id="text3"
       style="font-size:42.6667px;font-family:'A little sunshine';-inkscape-font-specification:'A little sunshine';white-space:pre;shape-inside:url(#rect3);display:inline;opacity:0.554745;fill:#ffffff"><tspan
         x="24.853516"
         y="276.94912"
         id="tspan1">ta</tspan></text><g
       id="g10"
       transform="matrix(0.76128228,0,0,0.87126925,-14.298434,-58.924952)"><g
         id="g4"><rect
           style="opacity:0.554745;fill:#ffffff;stroke-width:0.281573"
           id="rect4"
           width="132.97417"
           height="39.453873"
           x="25.20664"
           y="71.601479" /><path
           style="fill:#441650"
           d="m 27.08503,91.643355 v -17.72708 h 64.690621 64.690619 v 17.72708 17.727085 H 91.775651 27.08503 Z m 128.32291,0 V 74.974605 H 91.775651 28.143364 v 16.66875 16.668745 h 63.632287 63.632289 z m -125.94166,0 v -15.875 h 62.441661 62.441669 v 15.875 15.874995 H 91.907941 29.46628 Z m 123.82499,0 V 76.826695 H 91.907941 30.524613 v 14.81666 14.816665 H 91.907941 153.29127 Z M 36.234325,102.42513 c -0.0743,-0.47295 -0.188285,-3.657865 -0.25329,-7.077605 -0.09487,-4.99089 -0.25446,-7.07532 -0.808826,-10.56421 -0.45347,-2.8539 -0.601129,-4.43601 -0.42999,-4.60715 0.516096,-0.51609 1.231293,2.62571 1.857512,8.1599 0.164663,1.45521 0.3588,3.03279 0.431416,3.50573 l 0.132028,0.8599 h 3.641607 c 3.954457,0 4.382863,0.13048 4.603954,1.40223 0.16531,0.9509 -0.229031,8.637115 -0.454706,8.862785 -0.436063,0.43607 -0.663315,-0.87521 -0.667032,-3.848875 l -0.0041,-3.24114 h -3.571827 -3.571875 v 2.47661 c 0,2.827345 -0.236026,4.931715 -0.55314,4.931715 -0.119147,0 -0.277426,-0.38695 -0.351731,-0.85989 z m 8.106658,-7.968495 c 0.115161,-0.60242 0.0442,-0.63268 -1.861159,-0.79375 -4.009884,-0.33896 -5.32831,-0.14813 -4.994092,0.72283 0.127819,0.33309 0.720038,0.43123 3.015117,0.49967 1.570831,0.0468 3.050535,0.11046 3.288232,0.14137 0.267901,0.0348 0.477685,-0.18188 0.551902,-0.57012 z m 14.926884,7.600835 c -0.09254,-0.67516 -0.168255,-2.342025 -0.168255,-3.704165 v -2.47661 h -3.571875 -3.571875 v 3.15336 c 0,3.097765 -0.117882,3.990385 -0.526987,3.990385 -0.302758,0 -0.523411,-2.32593 -0.586358,-6.180825 -0.07075,-4.33294 -0.287475,-4.13792 4.598458,-4.13792 4.237349,0 3.715119,0.51118 4.189699,-4.10104 0.566891,-5.50935 1.331028,-8.95937 1.865915,-8.42449 0.17114,0.17114 0.02348,1.75325 -0.429989,4.60715 -0.554366,3.48889 -0.713956,5.57332 -0.808827,10.56421 -0.12243,6.440765 -0.236516,7.937495 -0.60502,7.937495 -0.119147,0 -0.292346,-0.5524 -0.384886,-1.22755 z m -3.169586,-7.239115 c 2.037898,0 2.518219,-0.0767 2.651314,-0.42357 0.335502,-0.87431 -1.155504,-1.09073 -5.007795,-0.72691 -1.679513,0.15862 -1.785938,0.20778 -1.785938,0.82494 0,0.59392 0.07857,0.64056 0.826823,0.49091 0.454753,-0.0909 1.946771,-0.16537 3.315596,-0.16537 z m 65.810269,3.44486 c -1.07057,-0.43256 -1.72204,-1.58744 -1.63644,-2.90098 0.0939,-1.44059 0.72195,-1.65571 1.05716,-0.36208 0.42473,1.63909 2.51075,2.54862 3.14164,1.36979 0.22874,-0.42741 0.2222,-0.94312 -0.0268,-2.11667 -0.32013,-1.50851 -0.64821,-1.84825 -1.22643,-1.27003 -0.15486,0.15485 -0.80375,0.24415 -1.44198,0.19844 -1.11427,-0.0798 -1.16393,-0.11995 -1.24844,-1.00916 -0.13835,-1.45555 0.39403,-2.76676 1.5459,-3.8074 1.2323,-1.11331 2.34426,-1.25399 3.19415,-0.40411 0.46703,0.46704 0.52424,0.74547 0.37546,1.82726 -0.11483,0.83491 -0.0139,2.05414 0.29197,3.52558 0.57386,2.76105 0.29627,4.16534 -0.95086,4.81026 -0.83943,0.43408 -2.19363,0.49533 -3.07529,0.1391 z m 1.15449,-7.21517 c 0.30562,-0.32742 0.6336,-0.9525 0.72884,-1.38906 l 0.17316,-0.79375 -0.9473,0.9883 c -0.88149,0.91964 -1.23583,1.78982 -0.72884,1.78982 0.12016,0 0.46852,-0.26789 0.77414,-0.59531 z m -55.314305,3.46503 c -0.334383,-0.18713 -0.44704,-0.61359 -0.44704,-1.69224 0,-1.21977 -0.07446,-1.44206 -0.483046,-1.44206 -0.518675,0 -1.451374,-0.89767 -1.718182,-1.65364 -0.399536,-1.13206 0.828041,-1.74724 1.583902,-0.79375 0.322165,0.40639 0.34688,0.31303 0.202101,-0.76349 -0.202629,-1.50669 0.203345,-2.41274 1.02844,-2.29528 0.529809,0.0754 0.57741,0.23282 0.57741,1.9092 0,1.2021 0.110551,1.86489 0.323213,1.93777 0.345395,0.11838 1.502958,-0.9089 1.704089,-1.5123 0.225893,-0.67768 1.015406,-0.071 1.015406,0.78028 0,0.63445 -0.22765,0.9653 -1.098031,1.5958 -0.603917,0.43748 -1.264673,0.79541 -1.468346,0.79541 -0.29512,0 -0.334757,0.3143 -0.195202,1.5478 0.187534,1.65759 -0.100588,2.10367 -1.024714,1.5865 z m 18.891326,0.0607 c -0.21923,-0.13864 -0.42368,-0.84605 -0.49578,-1.71549 -0.0776,-0.93584 -0.24339,-1.47956 -0.45113,-1.47956 -0.18063,0 -0.64214,-0.24677 -1.02557,-0.54837 -0.89193,-0.70159 -0.99449,-2.22257 -0.16451,-2.43962 0.3633,-0.095 0.63667,0.0424 0.8599,0.43217 0.29097,0.50806 0.34194,0.3807 0.45956,-1.14835 0.12483,-1.62278 0.1696,-1.71979 0.79375,-1.71979 0.63758,0 0.66426,0.0692 0.73919,1.91823 0.0428,1.05503 0.197,1.91823 0.34276,1.91823 0.35036,0 1.56388,-1.22251 1.56388,-1.57548 0,-0.52263 1.02136,-0.28075 1.20072,0.28436 0.23299,0.73408 -0.54109,1.7754 -1.88705,2.53852 -1.01184,0.57368 -1.03346,0.61744 -1.03346,2.09155 0,1.52073 -0.22103,1.87438 -0.90226,1.4436 z m 24.141919,-0.0862 c -0.11395,-0.1819 -0.26981,-0.86651 -0.34634,-1.52135 -0.13147,-1.1249 -0.19028,-1.19793 -1.0652,-1.32292 -0.77389,-0.11056 -0.93979,-0.25184 -1.00976,-0.8599 -0.0775,-0.67339 -0.0134,-0.7276 0.8599,-0.7276 h 0.94361 l 0.002,-1.78594 c 0.003,-2.67108 1.0729,-4.00494 3.23009,-4.02552 1.23205,-0.0118 1.64519,0.64345 1.45723,2.31105 -0.1307,1.15953 -0.48413,1.63615 -1.2193,1.64427 -0.28215,0.003 -0.32943,-0.2678 -0.20508,-1.17506 0.20072,-1.4644 -0.17618,-1.76507 -1.07982,-0.86144 -0.48069,0.4807 -0.70621,1.04198 -0.79659,1.98262 -0.0694,0.72165 -0.0179,1.37898 0.11443,1.46074 0.13227,0.0817 0.75425,-0.0814 1.38217,-0.3625 1.52461,-0.68259 2.40679,-0.67456 2.40679,0.0219 0,0.58236 -1.23778,1.46475 -2.41843,1.72407 -1.09765,0.24108 -1.30006,0.63979 -0.97496,1.92055 0.21494,0.84684 0.20382,1.20962 -0.0464,1.51106 -0.40082,0.48297 -0.95435,0.51255 -1.23413,0.066 z m -38.929452,-0.25135 c -0.444207,-0.44421 -0.395813,-2.42248 0.08756,-3.57936 1.452899,-3.47728 3.450373,-3.5835 4.069669,-0.21643 0.315556,1.71566 0.423919,1.89825 1.210773,2.04013 1.190708,0.21469 0.469888,1.80858 -0.817914,1.80858 -0.357975,0 -0.719396,-0.1786 -0.803159,-0.39688 -0.204548,-0.53304 -0.542816,-0.4998 -1.3464,0.13229 -0.752047,0.59157 -1.917842,0.69436 -2.400529,0.21167 z m 2.181039,-2.12262 c 0.226533,-0.32342 0.411878,-0.94519 0.411878,-1.38171 0,-0.79042 -0.0021,-0.79153 -0.522736,-0.27094 -0.597359,0.59736 -1.025427,2.24069 -0.583673,2.24069 0.155459,0 0.467998,-0.26462 0.694531,-0.58804 z m 5.012396,1.77303 c -0.760337,-0.76034 -0.766777,-1.79007 -0.0121,-1.93399 0.274309,-0.0523 0.656795,0.14894 0.874898,0.46032 0.456571,0.65185 1.114474,0.70806 1.828296,0.15621 0.504609,-0.39011 0.502979,-0.40605 -0.09312,-0.91154 -0.333694,-0.28297 -1.133529,-0.59349 -1.777412,-0.69005 -2.078659,-0.31171 -2.341348,-1.65576 -0.52629,-2.69275 1.464567,-0.83675 3.662285,-0.76289 3.788715,0.12733 0.07,0.49326 -0.0433,0.5985 -0.66146,0.61391 -0.410302,0.0102 -0.98413,0.11244 -1.275172,0.22713 -0.46707,0.18407 -0.432456,0.23001 0.294975,0.39145 1.680757,0.37303 2.555837,1.87856 1.946687,3.34918 -0.66428,1.60373 -3.171295,2.11952 -4.388018,0.9028 z m 12.630178,0.33246 c -0.38939,-0.20243 -0.82537,-0.85805 -1.14543,-1.72246 l -0.51674,-1.39564 0.8147,-0.76104 c 0.44808,-0.41857 0.81469,-0.87562 0.81469,-1.01568 0,-0.14005 0.31389,-0.56853 0.69754,-0.95218 0.82052,-0.82052 2.57233,-0.99226 2.84603,-0.27902 0.65696,1.712 -0.85445,4.0794 -2.60439,4.0794 -0.62323,0 -0.48965,0.50423 0.21913,0.82717 0.80657,0.3675 2.46606,-0.36254 2.87767,-1.26594 0.15526,-0.34076 0.50131,-0.61956 0.76899,-0.61956 0.70438,0 0.66731,1.67146 -0.053,2.39181 -1.04656,1.04657 -3.3951,1.40147 -4.71915,0.71314 z m 2.02343,-4.8411 c -0.0887,-0.0887 -0.30387,0.11683 -0.47818,0.45672 -0.30298,0.59077 -0.29588,0.59787 0.16125,0.16125 0.263,-0.2512 0.40562,-0.52929 0.31693,-0.61797 z m 9.075879,4.80246 c -1.23901,-1.49291 -0.0183,-5.97673 1.62717,-5.97673 0.85669,0 1.93317,0.71832 2.67012,1.78175 1.16455,1.68044 0.82477,3.2912 -0.88022,4.17289 -0.97465,0.50401 -3.00621,0.51714 -3.41707,0.0221 z m 3.26481,-1.75551 c 0.49773,-0.47777 0.49415,-0.50187 -0.2119,-1.42755 -0.395,-0.51787 -0.83726,-0.94159 -0.9828,-0.94159 -0.3179,0 -1.03137,1.62614 -1.03137,2.35071 0,0.93726 1.258,0.94768 2.22607,0.0184 z m 20.90613,1.7782 c -0.074,-0.19281 -0.10002,-1.47274 -0.0578,-2.84427 0.0725,-2.35766 0.10916,-2.4983 0.672,-2.57824 0.35888,-0.051 0.59583,0.0541 0.59662,0.26459 7.3e-4,0.19202 0.27172,0.0112 0.60221,-0.40177 0.46424,-0.58012 0.77984,-0.73056 1.38775,-0.66146 1.10283,0.12536 1.23507,1.09955 0.21569,1.58891 -0.74378,0.35706 -1.30123,1.47065 -1.93142,3.85834 -0.22357,0.84708 -0.42675,1.12448 -0.82363,1.12448 -0.28977,0 -0.58739,-0.15776 -0.66138,-0.35058 z m 4.24012,-0.0961 c -0.95813,-0.95814 0.4529,-5.30841 1.94187,-5.98683 1.05212,-0.47938 1.99952,0.30793 2.22438,1.8485 0.32702,2.24046 0.43252,2.46839 1.14251,2.46839 0.50857,0 0.65642,0.13707 0.65642,0.60854 0,1.19943 -1.2262,1.65253 -2.1673,0.80085 -0.45924,-0.41561 -0.53676,-0.40752 -1.26689,0.13229 -0.93161,0.68876 -1.92037,0.73887 -2.53099,0.12826 z m 2.24181,-2.1025 c 0.57273,-0.7281 0.71556,-1.54955 0.31273,-1.79851 -0.28706,-0.17741 -0.99971,0.864 -1.23629,1.80664 -0.22474,0.89543 0.21587,0.89155 0.92356,-0.008 z m 4.81526,2.05361 c -0.67171,-0.67171 -0.77293,-2.72246 -0.20182,-4.0893 0.44973,-1.07636 1.86362,-2.29425 2.66347,-2.29425 0.9011,0 2.00271,1.14787 2.00271,2.08681 0,1.23458 -0.44685,2.14652 -1.05178,2.14652 -0.46647,0 -0.53572,-0.17099 -0.53572,-1.32291 0,-0.72761 -0.11056,-1.32292 -0.24568,-1.32292 -0.40487,0 -1.12687,0.84791 -1.51694,1.78149 -0.53051,1.26969 -0.0855,2.03392 1.05855,1.81793 2.76958,-0.52286 2.87879,-0.52395 2.78139,-0.0279 -0.15665,0.79789 -1.3652,1.47489 -2.91923,1.63528 -1.26807,0.13088 -1.55027,0.0739 -2.03495,-0.41077 z m 6.749,-0.0528 c -0.40254,-0.31663 -0.69714,-0.81317 -0.69714,-1.17501 0,-0.34465 -0.11906,-0.70022 -0.26458,-0.79016 -0.46605,-0.28803 -0.29839,-1.40882 0.23613,-1.57847 0.27539,-0.0874 0.64869,-0.51618 0.82956,-0.95284 0.45362,-1.09514 1.48056,-1.83431 2.54841,-1.83431 2.40351,0 1.27354,3.94516 -1.28171,4.47497 l -0.87718,0.18187 0.72916,0.48116 c 0.62788,0.41431 0.84043,0.43506 1.53015,0.14937 0.44054,-0.18248 1.08178,-0.69057 1.42498,-1.12909 1.09514,-1.39933 2.09624,-0.13578 1.06214,1.34061 -0.99493,1.42046 -3.90445,1.88238 -5.23992,0.8319 z m 2.08099,-4.21413 c 0.26338,-0.29104 0.41935,-0.52916 0.34659,-0.52916 -0.0728,0 -0.34779,0.23812 -0.61118,0.52916 -0.26339,0.29104 -0.41936,0.52917 -0.3466,0.52917 0.0728,0 0.3478,-0.23813 0.61119,-0.52917 z m -106.612079,0.47031 c -0.226533,-0.32342 -0.411878,-0.97152 -0.411878,-1.44021 0,-1.42208 0.67015,-1.67592 4.424496,-1.67592 h 3.24842 v -1.69835 c 0,-1.11792 -0.154464,-1.96749 -0.451962,-2.48585 -0.623574,-1.08652 -0.163843,-2.1658 0.92254,-2.1658 0.410578,0 0.889381,0.14287 1.064006,0.3175 0.443512,0.44351 0.396381,1.66891 -0.07937,2.06375 -0.28238,0.23435 -0.396875,0.85434 -0.396875,2.14906 v 1.81969 h 2.983836 c 3.468981,0 4.159913,0.27836 4.159913,1.67592 0,0.46869 -0.185345,1.11679 -0.411878,1.44021 -0.408257,0.58286 -0.474416,0.58803 -7.525621,0.58803 -7.051205,0 -7.117365,-0.005 -7.525622,-0.58803 z m 10.791079,-0.64361 c 3.565253,-0.17099 3.613709,-0.18163 3.613709,-0.79375 v -0.62044 l -5.622396,0.0232 c -6.492571,0.0268 -8.268228,0.19169 -8.268228,0.76797 0,0.22398 0.342841,0.46759 0.79375,0.56401 1.112333,0.23786 5.221153,0.26343 9.483165,0.059 z m -2.736291,-7.49961 c 0,-0.14552 -0.119062,-0.26458 -0.264583,-0.26458 -0.145521,0 -0.264583,0.11906 -0.264583,0.26458 0,0.14553 0.119062,0.26459 0.264583,0.26459 0.145521,0 0.264583,-0.11906 0.264583,-0.26459 z"
           id="path4" /></g><g
         id="g9"><path
           style="opacity:0.554745;fill:#8d5fd3;stroke-width:0.64794"
           d="m 212.03823,353.47129 c -4.97783,0.56838 -10.61225,-0.40382 -15.14686,2.02861 -1.27366,1.42978 -0.94262,4.78315 1.7138,3.61243 7.5836,-0.65106 15.56815,0.40134 22.89652,-1.87869 2.18213,-1.77254 -1.12271,-3.68506 -2.89801,-3.4928 -2.17433,-0.29342 -4.37561,-0.29877 -6.56545,-0.26955 z"
           id="path5"
           transform="scale(0.26458333)" /><path
           style="opacity:0.554745;fill:#8d5fd3;stroke-width:0.64794"
           d="m 149.98536,353.45484 c -2.66134,0.46973 -7.54687,-0.5594 -8.50041,2.86257 1.61408,2.67848 5.89271,1.6194 8.54853,2.24316 5.30256,-0.0425 10.75483,1.18754 15.99218,0.42327 2.00676,-0.82041 2.25582,-4.16958 -0.34675,-4.28121 -5.13914,-1.04633 -10.4587,-1.28811 -15.69355,-1.24779 z"
           id="path6"
           transform="scale(0.26458333)" /><path
           style="opacity:0.554745;fill:#8d5fd3;stroke-width:0.64794"
           d="m 177.50634,332.72836 c -1.75363,-0.35128 -1.73328,1.71408 0.0304,1.23387 2.18377,0.37826 2.13963,-1.53452 -0.0304,-1.23387 z"
           id="path7"
           transform="scale(0.26458333)" /><path
           style="opacity:0.554745;fill:#5a2ca0;stroke-width:0.64794"
           d="m 177.6253,332.7233 c -3.71971,0.8984 2.79641,2.18754 0.58213,0.0607 -0.18796,-0.0569 -0.38682,-0.071 -0.58213,-0.0607 z"
           id="path8"
           transform="scale(0.26458333)" /></g></g></g></svg>
